<?xml version="1.0" encoding="UTF-8" standalone="no"?>
<svg
   xmlns:dc="http://purl.org/dc/elements/1.1/"
   xmlns:cc="http://creativecommons.org/ns#"
   xmlns:rdf="http://www.w3.org/1999/02/22-rdf-syntax-ns#"
   xmlns:svg="http://www.w3.org/2000/svg"
   xmlns="http://www.w3.org/2000/svg"
   xmlns:sodipodi="http://sodipodi.sourceforge.net/DTD/sodipodi-0.dtd"
   xmlns:inkscape="http://www.inkscape.org/namespaces/inkscape"
   width="210mm"
   height="297mm"
   viewBox="0 0 210 297"
   version="1.1"
   id="svg8"
   inkscape:version="1.0.1 (c497b03c, 2020-09-10)"
   sodipodi:docname="drawing.svg">
  <defs
     id="defs2">
    <rect
       x="61.537244"
       y="78.533245"
       width="43.66214"
       height="21.977587"
       id="rect24" />
    <rect
       x="54.797451"
       y="74.137727"
       width="54.504416"
       height="31.94076"
       id="rect18" />
    <rect
       x="21.922619"
       y="49.136905"
       width="152.70238"
       height="65.011905"
       id="rect12" />
  </defs>
  <sodipodi:namedview
     id="base"
     pagecolor="#ffffff"
     bordercolor="#666666"
     borderopacity="1.0"
     inkscape:pageopacity="0.0"
     inkscape:pageshadow="2"
     inkscape:zoom="0.90290849"
     inkscape:cx="258.87485"
     inkscape:cy="213.84829"
     inkscape:document-units="mm"
     inkscape:current-layer="layer1"
     inkscape:document-rotation="0"
     showgrid="false"
     inkscape:window-width="1252"
     inkscape:window-height="723"
     inkscape:window-x="0"
     inkscape:window-y="23"
     inkscape:window-maximized="0" />
  <metadata
     id="metadata5">
    <rdf:RDF>
      <cc:Work
         rdf:about="">
        <dc:format>image/svg+xml</dc:format>
        <dc:type
           rdf:resource="http://purl.org/dc/dcmitype/StillImage" />
        <dc:title></dc:title>
      </cc:Work>
    </rdf:RDF>
  </metadata>
  <g
     inkscape:label="Lager 1"
     inkscape:groupmode="layer"
     id="layer1">
    <path
       id="path82"
       d="m 191.8146,19.257554 c 0.0427,0.968008 0.0398,1.937664 0.0351,2.906458 -0.0317,0.885289 -0.28067,1.763488 -0.79059,2.490914 -0.70723,0.949663 -1.79376,1.274651 -2.90252,1.495226 -1.19575,0.176258 -2.40661,0.194212 -3.61292,0.197731 1.27403,-0.0068 2.54822,0.0016 3.82207,-0.02037 0.12174,-0.0021 -0.24241,-0.02381 -0.36315,-0.03958 -0.12352,-0.01614 -0.33993,-0.06239 -0.34103,-0.04553 -0.009,0.140412 0.20124,0.398312 0.0618,0.417579 -1.35424,0.187195 -2.73263,0.09364 -4.09894,0.140462 1.37224,0.09031 2.70313,0.499361 4.03381,0.825217 1.24176,0.28562 2.44161,0.709435 3.55578,1.327335 0.69767,0.428969 1.32802,0.954606 1.91729,1.520817 0.54869,0.620419 1.21568,1.070544 1.91728,1.499904 1.39648,0.85007 2.8546,1.576353 4.39125,2.133016 1.92243,0.570727 4.76094,1.252929 6.44442,0.336655 -0.0123,-0.174892 0.0289,-0.362219 -0.037,-0.524676 -0.0985,-0.242628 -0.87141,-0.205185 -1.04468,-0.205574 -4.80733,-0.0108 -3.23416,-0.199376 -5.43273,0.105167 -2.05053,0.256006 -3.92266,1.115973 -5.80169,1.920219 -2.19953,1.059275 -4.42468,2.053836 -6.68433,2.976808 -2.29722,1.073206 -4.72284,1.697027 -7.22452,2.039597 -0.45961,0.01016 -1.82626,0.136056 -1.37883,0.03046 0.68914,-0.162639 2.07165,0.502727 2.1144,-0.204057 0.0428,-0.706753 -1.39516,-0.25699 -2.07443,-0.456793 -1.73251,-0.509611 -3.26848,-1.200922 -4.83297,-2.111997 -0.93067,-0.541969 -1.80457,-1.176027 -2.70686,-1.764043 -5.0663,-3.834056 -9.46628,-8.455175 -13.72629,-13.145938 -0.34823,-0.394561 -0.69646,-0.789121 -1.04469,-1.183681 0,0 -4.02236,0.303256 -4.02236,0.303256 v 0 c 0.38869,0.392504 0.77737,0.785007 1.16605,1.177511 4.51477,4.545328 8.98658,9.164921 13.967,13.208514 2.11909,1.466289 2.7903,2.066938 5.0608,3.145165 3.73788,1.775063 7.41198,1.888218 11.56249,1.587677 2.50313,-0.391186 4.91884,-1.084323 7.22868,-2.139979 2.26252,-0.927332 4.48054,-1.950341 6.6976,-2.981203 1.90194,-0.806466 3.82323,-1.593006 5.90309,-1.782662 1.84498,-0.149474 1.11447,-0.07111 -3.02055,-0.07404 -0.14007,-10e-5 0.27988,0.01241 0.41984,0.01805 0.17179,0.0069 0.43973,0.105415 0.51335,-0.04995 0.0648,-0.136737 0.0449,-0.299273 0.0673,-0.448908 -1.44074,-0.06834 -0.70012,-0.03167 3.957,0.0066 0.10703,7.93e-4 -0.21371,0.02611 -0.32053,0.01926 -0.52429,-0.03375 -1.03858,-0.212823 -1.54659,-0.326636 -1.5437,-0.490617 -2.99693,-1.172294 -4.36767,-2.039612 -0.66347,-0.412387 -1.31595,-0.817618 -1.82542,-1.419632 -0.6256,-0.58484 -1.27887,-1.13891 -1.99565,-1.610926 -1.10816,-0.69214 -2.33547,-1.141921 -3.60418,-1.44847 -1.31117,-0.309679 -2.60822,-0.68418 -3.93302,-0.931629 -1.51894,0.04314 -3.05106,-0.07492 -4.55681,0.129418 -0.62674,0.08505 0.0143,0.552066 0.0964,0.582107 1.66557,0.609304 4.07324,-1.34403 5.32041,0.171506 1.2016,-0.0195 2.40985,-0.06214 3.59239,-0.29386 1.17832,-0.30552 2.27263,-0.779272 2.98459,-1.821134 0.48841,-0.831879 0.75173,-1.767833 0.77407,-2.735214 -0.005,-0.968795 -0.008,-1.938451 0.0351,-2.906459 0,0 -4.34847,0 -4.34847,0 z"
       style="stroke-width:0.264583;fill:#00ff00"
       inkscape:export-xdpi="96"
       inkscape:export-ydpi="96" />
    <path
       id="path90"
       d="m 171.4031,41.117258 c -0.8982,0.259652 -1.81067,0.462135 -2.68839,0.787249 -1.18134,0.458023 -2.36421,0.910675 -3.54399,1.372021 -1.26636,0.425664 -2.18545,1.305163 -2.87118,2.424316 -0.078,0.180756 -0.18456,0.351692 -0.23389,0.542264 -0.44143,1.705596 1.39494,2.509676 2.56629,3.232229 1.73607,1.018958 3.50518,2.063827 4.93983,3.501358 1.32944,1.332098 2.79959,3.265009 3.67241,4.919985 0.54209,1.027875 0.90927,2.138876 1.36391,3.208314 0.13001,1.16259 0.56226,2.330678 0.39004,3.487769 -0.47658,3.201914 -2.64153,5.347682 -5.04299,7.289099 -3.32182,2.685473 -7.37657,4.704985 -11.35277,6.173221 -2.37546,0.877158 -4.85081,1.4555 -7.27622,2.183249 -5.69434,1.143029 -11.73921,2.612626 -17.56908,1.376442 -2.56104,-0.543052 -5.21068,-1.050539 -7.24005,-2.868528 -0.58907,-0.527719 -0.85977,-1.327703 -1.28965,-1.991555 -0.0533,-0.678495 -0.26434,-1.362933 -0.16006,-2.035485 0.22303,-1.438423 1.27165,-2.870054 2.19704,-3.906861 1.5621,-1.750187 3.38503,-2.921519 5.3533,-4.133207 1.61145,-0.935167 3.35221,-1.56006 5.14943,-2.014768 0,0 -4.1453,-0.541528 -4.1453,-0.541528 v 0 c -1.71961,0.525944 -3.3817,1.205603 -4.91375,2.162194 -1.90715,1.25119 -3.78869,2.537208 -5.29506,4.282096 -0.95905,1.110911 -2.06443,2.663182 -2.26217,4.189301 -0.096,0.740579 0.1642,1.484487 0.2463,2.226728 0.50414,0.713833 0.84364,1.578951 1.51241,2.141498 1.96111,1.649629 5.44186,2.674863 7.81864,2.949654 4.24886,0.491236 11.34089,0.530117 15.79946,-0.04716 2.51044,-0.325043 4.9701,-0.964369 7.45515,-1.446554 2.47909,-0.733168 5.00743,-1.316712 7.43726,-2.199502 4.10161,-1.490173 8.28088,-3.537746 11.74184,-6.24591 2.64196,-2.067301 4.88734,-4.125905 5.4354,-7.581445 0.18847,-1.188368 -0.25355,-2.393048 -0.38032,-3.589573 -0.43375,-1.091613 -0.77838,-2.222997 -1.30124,-3.274841 -0.47721,-0.960022 -1.07771,-1.856239 -1.68762,-2.737926 -0.55505,-0.802368 -1.14183,-1.588053 -1.8019,-2.306503 -1.33904,-1.457462 -3.05005,-2.567376 -4.72939,-3.581601 -0.60878,-0.389337 -1.31845,-0.804868 -1.87933,-1.282496 -0.68622,-0.584369 -0.65636,-1.082323 -0.2588,-1.837624 0.69945,-1.047099 1.62629,-1.76711 2.83488,-2.157648 1.18809,-0.460364 2.37134,-0.934183 3.57522,-1.352354 0.90521,-0.293709 1.83284,-0.508595 2.74642,-0.774499 0,0 -4.31208,-0.541417 -4.31208,-0.541417 z"
       style="stroke-width:0.264583;fill:#00ff00"
       inkscape:export-xdpi="96"
       inkscape:export-ydpi="96" />
    <path
       id="path92"
       d="m 168.20745,2.8118004 c -0.9862,0.7715853 -1.16031,0.8853302 -2.29114,1.9378601 -3.41913,3.1823694 -6.6659,6.5634525 -9.93353,9.8993475 -2.55248,2.64668 -5.13405,5.274805 -7.3074,8.248676 -0.6149,0.877631 -0.33789,0.454727 -0.83944,1.263165 0,0 4.24424,0.22773 4.24424,0.22773 v 0 c 0.44421,-0.783753 0.19798,-0.370725 0.74658,-1.234335 2.01904,-2.933225 4.38106,-5.606563 6.78664,-8.226155 2.06398,-2.175169 2.7192,-2.90483 4.91386,-5.048768 2.22745,-2.1759765 4.4968,-4.3208639 7.0805,-6.0747241 0.29649,-0.2012611 0.61761,-0.3635973 0.92642,-0.5453957 0,0 -4.32673,-0.4474008 -4.32673,-0.4474008 z"
       style="stroke-width:0.264583;fill:#00ff00"
       inkscape:export-xdpi="96"
       inkscape:export-ydpi="96" />
    <path
       id="path94"
       d="m 192.23627,11.602835 c -0.65182,0.463295 -1.30474,0.929902 -1.98338,1.35352 -0.38174,0.224941 -0.19958,0.12041 -0.54574,0.314833 0,0 4.31069,0.446527 4.31069,0.446527 v 0 c 0.32647,-0.207571 0.15351,-0.09644 0.51844,-0.334071 0.66963,-0.453002 1.3333,-0.91753 2.02673,-1.333408 0,0 -4.32674,-0.447401 -4.32674,-0.447401 z"
       style="stroke-width:0.264583;fill:#00ff00"
       inkscape:export-xdpi="96"
       inkscape:export-ydpi="96" />
    <path
       id="path102"
       d="m 115.06023,54.950076 c 0.2534,-1.071967 0.51844,-2.141966 0.78198,-3.211835 0.62524,-2.155227 1.28612,-4.299606 1.94562,-6.444578 0.38116,-1.319448 0.76698,-2.636941 1.17056,-3.949652 0.18902,-0.614823 0.42432,-1.210395 0.45771,-1.85437 -1.78765,-3.171007 -4.94483,-0.08503 -6.42444,1.136045 -0.72093,0.59496 -1.4555,1.173196 -2.18132,1.762188 -2.44656,1.960258 -5.05363,3.708329 -7.58979,5.549236 -2.03359,1.384342 -4.072961,2.773574 -6.248018,3.930941 -1.537907,0.818335 -2.342915,1.141254 -3.940726,1.850768 -3.441652,1.276345 -7.059946,2.11155 -10.722975,2.378303 -0.318399,-0.0073 -1.273035,-0.0016 -0.955204,-0.02196 1.154174,-0.07417 2.328767,0.06637 3.466862,-0.139446 0.206724,-0.03738 -0.357383,-0.23446 -0.487558,-0.399343 -0.139737,-0.176996 -0.255757,-0.383908 -0.304623,-0.604057 -0.138324,-0.623165 0.07031,-1.242346 0.195958,-1.838399 0.89145,-2.396808 2.609483,-4.40558 4.756746,-5.785763 0.423844,-0.272431 0.881417,-0.488421 1.322125,-0.732631 0.44141,-0.112372 1.773505,-0.262139 1.324229,-0.337114 -0.946203,-0.157903 -1.981978,-0.267689 -2.876806,0.07802 -0.346266,0.133776 0.719153,0.357978 0.86755,0.698238 0.249925,0.573048 0.318227,1.237893 0.247785,1.859089 -0.331759,2.925607 -1.695302,5.790065 -2.735432,8.467244 -4.241874,9.424476 -9.576443,18.303806 -15.086076,27.030068 0,0 3.694724,0.196699 3.694724,0.196699 v 0 c 4.916672,-9.009499 9.997519,-17.932574 14.620798,-27.098902 0.717071,-1.604714 1.498499,-3.182189 2.151213,-4.814139 0.651624,-1.62923 1.823561,-4.006702 1.214903,-5.970323 -0.133024,-0.429151 -0.452228,-0.936992 -0.896048,-1.006927 -3.806857,-0.599845 -4.095181,-0.35283 -6.560661,0.473993 -0.435642,0.261509 -0.888389,0.496432 -1.306923,0.784527 -2.18081,1.501156 -3.916558,3.607755 -4.893376,6.068832 -0.221266,0.987446 -0.51861,1.921746 0.04098,2.859701 0.137623,0.230675 0.247946,0.578649 0.513143,0.621319 2.090939,0.336415 3.81549,0.270502 5.772989,0.221469 3.593669,-0.381333 7.13395,-1.252003 10.509888,-2.540624 1.528868,-0.686022 2.51447,-1.096521 3.991673,-1.884987 2.2015,-1.175075 4.28512,-2.567429 6.3489,-3.964514 2.53927,-1.855861 5.16655,-3.593539 7.61806,-5.565767 1.01891,-0.809337 1.2194,-0.97744 2.24188,-1.755465 0.31872,-0.242525 0.6317,-0.4933 0.96166,-0.720305 0.22641,-0.155765 0.9753,-0.374488 0.70548,-0.426653 -3.40326,-0.657948 -4.87652,0.68853 -3.6813,-0.343784 0.0908,0.567126 -0.1204,1.180232 -0.25924,1.722194 -0.3387,1.322125 -0.70793,2.637925 -1.1075,3.942823 -0.69029,2.161106 -1.44804,4.299612 -2.1308,6.46312 -0.27413,1.063847 -0.52153,2.136516 -0.87829,3.176908 0,0 4.34369,0.139806 4.34369,0.139806 z"
       style="stroke-width:0.264583;fill:#00ff00"
       inkscape:export-xdpi="96"
       inkscape:export-ydpi="96" />
    <path
       id="path104"
       d="m 66.700627,54.233815 c 0.03561,1.130268 0.131156,2.324097 -0.264197,3.410185 -0.09872,0.27119 -0.245129,0.52256 -0.367692,0.783839 -0.680971,1.204428 -1.639731,2.377943 -3.010752,2.820281 -0.24199,0.07808 -0.499806,0.09389 -0.74971,0.140838 -0.260199,-0.01339 -1.040431,-0.0209 -0.7806,-0.04017 1.088956,-0.08076 2.196719,0.04171 3.272647,-0.14464 0.297543,-0.05154 -0.580721,-0.167801 -0.863941,-0.272557 -0.639525,-0.236543 -1.251202,-0.559179 -1.866477,-0.851464 -1.51067,0.01556 -3.047688,-0.234662 -4.532011,0.04668 -0.268224,0.05084 -0.04395,0.545639 -0.03195,0.818375 0.0154,0.350125 0.08097,0.696293 0.113919,1.045204 0.07718,0.817227 0.198652,1.917303 0.05756,2.73013 -0.0968,0.557675 -0.321503,1.085416 -0.482253,1.628121 -0.329729,0.597752 -0.602419,1.230728 -0.989185,1.793259 -1.650293,2.400268 -4.012432,4.218016 -6.316665,5.940671 0,0 3.978328,0.362831 3.978328,0.362831 v 0 c 2.247321,-1.821622 4.584285,-3.709998 6.258296,-6.102779 0.412448,-0.589544 0.713446,-1.24968 1.07017,-1.87452 0.183537,-0.576254 0.432965,-1.135538 0.550606,-1.728761 0.15689,-0.791144 0.06126,-1.965261 0.04127,-2.774836 -0.0081,-0.327734 -0.025,-0.655844 -0.01222,-0.983427 0.004,-0.102137 0.16398,-0.289811 0.0623,-0.300249 -1.333302,-0.136867 -2.679681,-0.07065 -4.019523,-0.105968 0.651965,0.262792 0.429934,0.164999 1.164267,0.503565 0.269396,0.124206 1.372592,0.667927 1.663874,0.69523 3.773244,0.353697 3.612409,0.333944 5.846448,0.17318 0.252119,-0.07885 0.51381,-0.131905 0.756362,-0.236556 1.372444,-0.592156 2.322187,-1.823175 3.008513,-3.101514 0.129728,-0.28651 0.283824,-0.563187 0.389186,-0.859523 0.400558,-1.126599 0.305359,-2.343724 0.378389,-3.515426 0,0 -4.324956,0 -4.324956,0 z"
       style="stroke-width:0.264583;fill:#00ff00"
       inkscape:export-xdpi="96"
       inkscape:export-ydpi="96" />
    <path
       id="path106"
       d="m 49.124279,65.005881 c -1.878853,-0.50141 -4.303675,-0.162486 -5.954395,0.04921 -0.355078,0.04554 -0.633798,0.3351 -0.934029,0.530074 -1.055325,0.685347 -0.976006,0.713811 -1.864262,1.644015 -0.528743,0.997408 -0.967626,1.606399 -1.097251,2.773251 -0.275624,2.481104 0.714338,4.932921 1.527093,7.202792 0.384403,1.073565 0.790591,2.139206 1.185886,3.208811 0.835406,2.588265 1.931279,5.218684 1.782855,8.026545 -0.172915,3.271208 -1.707644,7.431286 -3.740906,9.965505 -3.551963,4.427096 -7.148904,5.920156 -11.963284,8.771396 -3.884229,1.49708 -9.023022,4.26902 -13.5823,3.41119 -0.548004,-0.10311 0.17829,-1.12096 0.08491,-1.6707 -0.174513,-1.02738 -0.876417,-1.95827 -0.878346,-3.00036 -0.005,-2.69191 1.596862,-5.48519 2.654624,-7.803208 2.791246,-4.489524 1.342885,-2.390479 4.305167,-6.324497 0,0 -3.597773,-0.226298 -3.597773,-0.226298 v 0 c -2.799972,4.000167 -1.412685,1.87343 -4.126347,6.403232 -0.987416,2.127621 -2.873703,5.559911 -2.896968,8.056021 -0.01064,1.14174 0.02977,2.64745 0.978591,3.28261 1.866877,1.24971 4.275088,1.53775 6.513188,1.73249 4.741902,0.41261 8.921903,-1.94402 13.132632,-3.59025 4.854082,-2.81653 8.814572,-4.50208 12.477673,-8.886892 2.057913,-2.463366 3.806086,-6.924691 4.065352,-10.162008 0.217053,-2.710223 -0.843426,-5.574996 -1.576893,-8.109813 -1.01164,-2.914369 -2.762234,-7.005015 -2.28899,-10.169673 0.174503,-1.166947 0.557543,-1.598882 1.138386,-2.56718 0.811924,-0.77025 0.920043,-0.976543 1.897057,-1.507541 0.314727,-0.171053 1.334579,-0.346956 0.985679,-0.428085 -1.116775,-0.259681 -2.29175,-0.08244 -3.436779,-0.141862 -0.174702,-0.0091 0.350364,-0.02336 0.52473,-0.0093 0.126759,0.01027 0.248417,0.0546 0.372625,0.0819 0,0 4.312076,-0.541414 4.312076,-0.541414 z"
       style="stroke-width:0.264583;fill:#00ff00"
       inkscape:export-xdpi="96"
       inkscape:export-ydpi="96" />
    <path
       id="path108"
       d="m 71.417507,66.63029 c -1.392039,1.755746 -2.804689,3.495225 -4.148783,5.28828 0,0 4.162602,0.262802 4.162602,0.262802 v 0 c 1.301843,-1.8337 2.680637,-3.62626 4.27972,-5.213172 0,0 -4.293539,-0.33791 -4.293539,-0.33791 z"
       style="stroke-width:0.264583;fill:#00ff00"
       inkscape:export-xdpi="96"
       inkscape:export-ydpi="96" />
    <path
       id="path110"
       d="m 40.121522,109.75317 c -4.105537,3.41987 -8.223623,6.82128 -12.430178,10.11698 0,0 3.757515,0.33612 3.757515,0.33612 v 0 c 2.454185,-2.0385 4.906875,-4.08151 7.420985,-6.04627 1.54753,-1.20939 2.962466,-2.29551 4.591802,-3.36379 0.314166,-0.20599 0.650806,-0.37547 0.976212,-0.5632 0,0 -4.316336,-0.47984 -4.316336,-0.47984 z"
       style="stroke-width:0.264583;fill:#00ff00"
       inkscape:export-xdpi="96"
       inkscape:export-ydpi="96" />
    <path
       id="path112"
       d="m 166.23838,87.386188 c -7.23091,3.46701 -14.54193,6.763676 -21.81591,10.138754 -0.8654,0.410977 -1.7308,0.821957 -2.5962,1.232937 0,0 3.74554,0.418343 3.74554,0.418343 v 0 c 0.80955,-0.415747 1.61911,-0.831493 2.42867,-1.247238 3.75929,-1.856417 7.53264,-3.680052 11.35172,-5.411406 3.01987,-1.369034 5.69372,-2.55823 8.78105,-3.732519 0.77686,-0.295484 1.57524,-0.530942 2.36286,-0.796412 0,0 -4.25773,-0.602459 -4.25773,-0.602459 z"
       style="stroke-width:0.264583;fill:#00ff00"
       inkscape:export-xdpi="96"
       inkscape:export-ydpi="96" />
  </g>
</svg>
